<?xml version="1.0" encoding="UTF-8" standalone="no"?>
<svg
   id="a129fca9-cbcc-4869-b132-bbb1f884b906"
   data-name="Layer 1"
   viewBox="0 0 346.16 979.52"
   version="1.1"
   sodipodi:docname="certas.svg"
   inkscape:version="1.2.2 (b0a8486541, 2022-12-01)"
   xmlns:inkscape="http://www.inkscape.org/namespaces/inkscape"
   xmlns:sodipodi="http://sodipodi.sourceforge.net/DTD/sodipodi-0.dtd"
   xmlns:xlink="http://www.w3.org/1999/xlink"
   xmlns="http://www.w3.org/2000/svg"
   xmlns:svg="http://www.w3.org/2000/svg">
  <defs
     id="defs25">
    <linearGradient
       id="linearGradient1429"
       inkscape:swatch="solid">
      <stop
         style="stop-color:#ff0000;stop-opacity:1;"
         offset="0"
         id="stop1427" />
    </linearGradient>
    <linearGradient
       inkscape:collect="always"
       xlink:href="#linearGradient1429"
       id="linearGradient1431"
       x1="399.34912"
       y1="210.5706"
       x2="416.37022"
       y2="210.5706"
       gradientUnits="userSpaceOnUse"
       gradientTransform="translate(-138.25528,131.28983)" />
    <linearGradient
       inkscape:collect="always"
       xlink:href="#linearGradient1429"
       id="linearGradient2755"
       gradientUnits="userSpaceOnUse"
       gradientTransform="translate(-337.84949,133.62131)"
       x1="399.34912"
       y1="210.5706"
       x2="416.37022"
       y2="210.5706" />
  </defs>
  <sodipodi:namedview
     id="namedview23"
     pagecolor="#ffffff"
     bordercolor="#000000"
     borderopacity="0.25"
     inkscape:showpageshadow="2"
     inkscape:pageopacity="0.0"
     inkscape:pagecheckerboard="0"
     inkscape:deskcolor="#d1d1d1"
     showgrid="false"
     inkscape:lockguides="true"
     inkscape:zoom="1.4827643"
     inkscape:cx="215.81313"
     inkscape:cy="603.93954"
     inkscape:window-width="1640"
     inkscape:window-height="891"
     inkscape:window-x="0"
     inkscape:window-y="0"
     inkscape:window-maximized="1"
     inkscape:current-layer="a129fca9-cbcc-4869-b132-bbb1f884b906" />
  <path
     d="m -317.82,61.59 c 1.35,10 20.88,-5.44 17.79,23.91 -0.81,3.11 1.85,4.27 3.53,1.86 5.24,-4.78 13.56,-1.53 20.05,-2.35 29.62,0.49 52.73,-5.59 58.95,31.37 3.1,4.37 2.74,10.05 5.22,14.58 1.58,1.68 0.5,4.07 1.16,6 2.06,4.6 3.15,9.49 5.12,14.06 0.43,2.89 0.81,5.69 2.48,8.22 1.21,3.93 1.89,8.32 3.66,12.08 1.8,2.19 1,5 2.17,7.44 2.08,4 2.47,8.61 4,12.75 1.94,4.83 3.84,9.75 5.52,14.72 0.55,1.53 1.24,3.07 0.93,4.81 1.93625,3.578 3.02104,7.55442 3.17,11.62 16.45,45.82 19.59,78.42 11.5,126.63 -3.68,39.15 -10.6,78.06 -14.33,117.24 0.06,28.53 -20.61,7 -23.7,20.28 0.15,20.69 -1.31,41.53 0.38,62.15 2.47,4.89 9.32,0.61 8.14,9 -1.17,9.43 -2.48,18.85 -3.81,28.26 -0.2,5.24 -4.67,14.57 -1.34,18.55 1.42,1 1.58,2.28 1.15,3.83 -4.92,29.4 -20.28,54.75 -36.14,79.4 -7.21,10.62 -12.68,22.58 -21.22,32.19 -7.46384,6.54032 -13.95895,14.10954 -19.29,22.48 -7.15,12.57 -7.92,26.85 -10.33,40.76 -0.44,4.83 -7,5.92 -6.09,11.09 0.81,8.24 0.57,19.18 -9,21.89 -5.4,0.94 -11.4,4.25 -11.06,10.35 -0.84,6.66 -2.78,13.16 -2.37,20 -0.07,10 -0.28,20.06 -0.49,30.1 -0.45,3.75 4.94,3.5 4.05,7.42 -2.18,12.6 -5.2,25.07 -7.54,37.65 -0.20345,2.09734 -0.74724,4.14753 -1.61,6.07 -1.91,4 -6.58,2.44 -10.18,2.48 -6,-1.06 -17.07,3.51 -19,-4.41 -2.81,-13.83 -5.27,-27.77 -8.34,-41.52 -0.24,-2 0.31,-3.52 2.28,-4.36 1.4,-0.59 1.81,-1.75 1.79,-3.22 0.06,-11.75 -0.4,-23.49 -0.85,-35.23 0.19,-5.25 -1.78,-10.1 -2.09,-15.25 -0.46,-12.73 -19.44,-7 -19.78,-20.58 -1.35,-5 1.78,-12.2 -1.94,-16.21 -7.21,-5.3 -4.91,-15.14 -6.82,-22.79 -1.24949,-9.58076 -4.4413,-18.8057 -9.38,-27.11 -4.79,-6.36 -9.22,-12.8 -15.52,-17.8 -9.58,-9.78 -15.58,-22.37 -23.06,-33.73 -14.13,-22.86 -29.58,-45.62 -34.53,-72.54 -0.26,-3.31 -3.32,-7.7 -0.7,-10.55 2.87,-2.57 0.65,-6.53 0.57,-9.77 -1.85,-13.3 -4.81,-26.59 -5.28,-40 0.18,-6.14 9.15,-1.26 8.26,-9.47 0.58,-19.74 0.58,-39.46667 0,-59.18 -0.51,-9.13 -12.48,-2.61 -17.84,-5.57 -8.71,-4.08 -4.7,-22.8 -7.74,-31.3 -1.75,-15.12 -3.5,-30.27 -5.34,-45.41 -5.09,-21.88 -5.63,-44.78 -9.23,-67 -5,-34.65 -3,-70.94 9.44,-103.84 0.79,-4.42 2.77,-8.87 3.75,-13.17 -0.87,-2.2 0.54,-3.6 1.65,-5.15 11.89,-32.78 21.14,-66.71 32,-99.87 8.49,-41.88 40.75,-28.41 72.52,-30.92 2.45,-0.1 4.55,0.39 6.21,2.35 0.62,0.72 1.47,1.61 2.53,1.2 1.06,-0.41 0.79,-1.7 0.81,-2.64 0.05,-2.51 0.08,-5 0,-7.53 -0.23,-6.94 6.35,-13 13.06,-12.48 5.25,0.68 5.07,-5 5.15,-8.69 -0.08,-8.32 1.2,-16.56 1.17,-24.9 -0.54,-8 0.09,-16 0.31,-23.93 0.11,-4.55 -4.4,-7.71 -2.95,-12.59 2.21,-13.45 5.79,-26.65 8.21,-40.06 0.47,-2.29 1.87,-3.72 4.26,-3.62 3.21,0.12 6.4,-0.91 9.63,0 5.63,0.79 14.66,-2.13 18.76,2.43 1.42,1.24 2.35,2.29 1.77,4.34 -0.66,3.1 2.77,5.15 1.79,8.43 -0.32635,2.240701 0.14816,4.524707 1.34,6.45 2.65,5.13 2.18,11.4 4.06,16.94 l -1.25,-2.54 c 1.25,0 1.26,3.19 1.64,4.53 l -0.54,0.36 0.1,0.12 0.46,-0.46 c -0.19,4 0,8.6 -2.29,12 -2,2.31 -0.69,5.29 -0.89,8 m -59.91,169.04 c -8.57,0.62 -17.73,-1.33 -26,1 -14.82918,8.04897 -27.97673,18.86778 -38.73,31.87 -5.45,2.81 -7.05,9.09 -10.79,13.56 -2.06,2.55 -2.29,6.15 -5.28,8 -21,39.62 -18.93,92.1 3.43,130.8 6.81,13.21 17.29,24 28.11,34 7.11,4 13.67,9.05 20.29,13.93 2.85152,2.2423 6.55581,3.09319 10.1,2.32 l 30.69,0.2 c 2.68,0.29 2.19,-1.94 1.42,-3.68 -1.93,-4.91 20.39,-1.26 24,-2.09 7.06,0.06 14.13,0 21.19,0 2.26,-0.16 5.58,0 3.77,3.09 -2.21,4.87 5,2.45 7.54,2.86 11.25,-1.06 23.69,2 34.33,-1.76 28.38,-17.64 51.13,-44.57 60.75,-76.86 8.59,-30 8.81,-63.91 -4.36,-92.52 -12.36,-25.88 -32.69,-49.1 -58.19,-62.91 -9.9,-3.26 -21.23,-0.69 -31.62,-1.37 -23.55,-0.2 -47.06,-0.72 -70.65,-0.44 z m -4.12,238.61 v 0 c -16.31,-0.07 -20.13,2.31 -33.67,-8.72 -31.19,-19 -52.6,-52.89 -58.51,-88.77 -6.55,-36.5 2,-76.28 24.73,-105.85 8.28,-5.47 13.45,-14.92 21.75,-20.76 6.82,-6.17 14.83,-10.76 22.44,-15.87 1.71066,-1.24472 3.78522,-1.88819 5.9,-1.83 8.26,-0.42 60.3,2.26 24.44,-4.7 -9.06,-1.77 -17.49,-6 -25.39,-10.68 -3.44,-1.75 -6.34,-6.68 -10.54,-4.79 -33.55,16.65 -61.74,46 -75,81.26 -14.52,33.16 -15.34,81.39 -3.7,115.68 2.89,8.93 9,16.27 13.92,24.18 3.69,5.93 7.14,12 11.73,17.35 5.84,7.51 11.65,15 15.82,23.68 14.68,27.65 18.11,57.28 7.69,86.88 -12.15,41.22 -28.15,87.39 -8.83,129.09 9,21.45 23.59,40.42 35.29,60.57 11.52,14.8 24.68,28.93 28.9,47.9 11.15,35.39 -12.37,37.85 31.74,34.09 9.24,0.4 18.47,0.25 27.71,0 8.06,0.53 16.14,1.82 24.21,0.63 3.6,-0.42 2.5,-4.28 2.44,-6.87 -0.19083,-5.07061 0.19497,-10.14649 1.15,-15.13 4.2,-28.14 15.85,-40.07 32.15,-61.11 13.56,-23.15 30.48,-44.72 39,-70.39 11.76,-37 0.33,-75.77 -10.7,-111.36 -1.84,-8.73 -4.91,-17.12 -7.2,-25.71 -4.19,-24.74 2.91,-50 14.49,-71.77 3.73,-6.2 7.36,-12.49 12.31,-17.92 9.2,-10.33 15.13,-23.09 22.17,-34.8 14.86,-26.29 13.83,-59.28 11.11,-88.64 -7.46,-49.48 -38.9,-94.92 -84.18,-116.9 -3.71,-2.16 -5.91,1.72 -8.85,3.35 -5.4,2.92 -10.85,5.73 -16.3,8.56 -7.73,3.24 -17,3.25 -24.38,6.69 0.83,1.29 2.26,1.24 3.61,1.26 8,-0.45 16.09,-0.33 24.14,-0.07 10.47,-1.22 17.17,0.62 25.36,7.46 62.17,39.67 80.06,127.52 38.22,188.27 -11.94,18.67 -29.49,33.24 -48,45.17 -13.8,1.88 -28.12,0.57 -42.08,1 -3.19,-0.06 -3.82,3.59 -5.37,5.7 -1,1.34 -1.91,3.68 0.43,4.08 11.6,0.3 23.24,0 34.85,0.12 7.9,0.54 3.86,11.88 4.8,17.18 -0.38,5.19 6.14,5.69 9.24,8.49 9.77,7.85 9.73,22.35 13.36,33.52 2.84,4.93 2.05,10.78 4.9,15.68 2.39,5.05 1.39,10.9 3.94,15.92 4.89,9.2 4.77,20.21 7.72,30.1 14.14,38.64 6.73,70.13 -15,103.8 -6.68,11 -13.76,21.72 -20.27,32.84 -2.91,4.27 -5.66,9.38 -10.9,11 -3.75,1.05 -7.46,2.27 -11.42,2.14 -26.21,-0.07 -52.42,0 -78.62,0 -16.32,1.32 -22.39,-13.43 -29.59,-25.19 -5.64,-10.16 -13.39,-19.33 -18,-29.93 -28,-43.24 -15.36,-77.78 -3.2,-123.23 3.55,-4.06 1.93,-9.55 4,-14 4.85,-14.73 7.73,-30.33 13.07,-45.19 2.1,-6.11 7.62,-9.61 13.35,-11.67 4.28,-3.06 1.1,-12.64 2.19,-17.59 0.33,-2.79 1.92,-4.27 4.72,-4.28 11.28,-0.06 22.57,0.07 33.85,-0.05 4.92,0.05 0.43,-4.43 -0.23,-6.64 -2.11,-6.21 -17.11,-2.12 -22.91,-3.23 z m 85.73,350.64 c -0.10895,2.10268 -0.032,4.21087 0.23,6.3 0.14081,0.67477 0.79067,1.11685 1.47,1 1.38,-0.46 1.55,-1.93 1.55,-3.21 -0.28,-10.15 3.38,-19.58 6.66,-29 6.54,-12.87 18.11,-21.46 27,-32.38 18.84,-32.67 44.79,-63.29 50.69,-101.5 1.32,-3.76 -3.33,-5.43 -2,-9.11 2.61,-14.55 4.46,-29.22 6.68,-43.83 0.4,-2.67 -0.13,-3.6 -2.63,-4.46 -10.28,-3.2 -4.51,-21.28 -6,-29.78 -0.56,-10.35 -6.43,-19.74 -6.95,-30.17 -2.86858,-20.24635 -0.0143,-40.89145 8.24,-59.6 5.43,-15.38 16.39,-27.74 24.91,-41.43 2.15,-3.83 5.45,-7.21 5.17,-11.9 0.1,-4.2 0.13,-8.49 1.16,-12.59 2.12,-6.07 -0.22,-12.6 1.88,-18.56 0.49,-1.69 2.67,-1.76 1.92,-3.7 0.14,-6.9 4.44,-13.07 4.1,-20.22 4.55,-40.75 -2.57,-82.64 -24.52,-117.76 -12.16255,-19.00935 -27.94137,-35.44392 -46.44,-48.37 -3.94,-2.26 -20.58,-15.58 -21.86,-10.18 -0.35911,0.84984 -0.86708,1.62873 -1.5,2.3 -5.7,3.58 6.94,6.39 9.07,8.66 18.22365,11.29342 34.1662,25.90629 47,43.08 31.35,41.95 38.44,100.64 22.53,150 -6.36,12.06 -12.29,24.71 -20.21,35.94 -9.14,11.65 -18.2,23.62 -24,37.35 -8.53,18.49 -11.53,39 -9.72,59.27 4,14.38 8.47,28.74 11.88,43.32 9.88,34 17.84,66.53 4.19,100.85 -8.72,23 -24.43,42.32 -36.16,63.75 -3.65,6.91 -9.55,12 -14.46,18 -12.15,16.62 -19.63,37.4 -19.88,57.93 z M -504.06,349 c 1.72,11.23 3.52,22.21 4.22,33.49 2.38,9.7 10.28,17.35 15.56,25.67 8.59867,11.81493 15.0691,25.04006 19.12,39.08 4.68843,15.51531 5.9005,31.87312 3.55,47.91 -1,10.3 -6.47,19.71 -7,30 -1.36,8.84 4.39,26.76 -6.58,29.5 -1.56,0.65 -2.07,1.27 -2.09,3 1.93,15.24 4.78,30.37 6.85,45.59 0.40812,1.49388 -0.0286,3.09151 -1.14,4.17 -2.8,3.61 0.37,9 0.63,13.15 8,33.37 30.51,60.38 47.21,89.74 4.61,8.41 12.75,13.8 18.9,20.91 11.27,12.86 15.64,29.37 16.9,46 5.32,5.72 1.5,-20.57 1.05,-22.21 -3.1,-14.82 -8.48,-29.77 -17.67,-41.94 -5.05,-6.23 -11.55,-11.43 -15.1,-18.74 -16,-27.44 -36.69,-53.36 -41.95,-85.52 -6,-38.35 10.45,-74.71 19,-111.42 8.44,-25.24 1.79,-53.69 -9.84,-76.87 -6.24,-14.74 -19.36,-24.74 -26.87,-38.7 -4.67,-8.55 -8.94,-17.34 -13.91,-25.71 -9.28,-25 -9.49,-51.85 -7.3,-78 2.95,-20.67 8.38,-40.77 18.4,-59.23 6.69,-6.87 12.29,-14.71 18,-22.6 8.48,-11 19.36,-19.81 30.48,-28 6.01252,-4.4157 12.32437,-8.40863 18.89,-11.95 3.34,-1.67 0.16,-4.9 -1.17,-6.89 -0.62675,-1.07362 -1.93422,-1.54178 -3.1,-1.11 -69.48,35.09 -105.37,115.71 -87.35,190.92 M -358.86,93.41 v -0.13 c -15.08,1.64 -33.91,-7.12 -31.66,15.81 -1,6.11 5.36,10.52 4.4,16.21 -3.14,11 -9.31,21.63 -19.09,28 -1.84,1.09 -1.89,2.73 -0.2,4 32.67,24.45 95.29,24.24 128.14,0.21 1.63,-1.06 1.6,-2.75 -0.06,-3.68 -9.33,-6.2 -15.9,-16.26 -19,-26.89 -2.05,-6.64 5.77,-11.79 4.07,-18.94 0.72,-7 -2,-15.37 -10.43,-14.25 -18.72,0.54 -37.42,-0.56 -56.17,-0.34 z M -315.37,698 v 0.12 c 9.73,-0.62 22.67,1.92 30,-5.71 9.14,-14.27 17.71,-28.91 26.3,-43.52 17.94,-25.58 23.47,-58.79 14.06,-88.67 -2.48,-9.65 -3.53,-19.69 -6.92,-29.11 -5.06,-11.93 -6.67,-25.08 -10.56,-37.44 -1.83,-7.7 -4.42,-15.19 -6.54,-22.8 -1.18,-9.26 -8.23,-17.16 -18,-16.7 -15.83,1.58 -31.91,0 -47.81,0.44 -18,1.46 -36.06,-1.36 -54.11,0 -5.35,0.44 -11.19,-1.69 -15.85,2.18 -7.44,3.43 -8.18,13 -10.35,19.77 -4.73,17.16 -9.11,34.4 -13.88,51.55 -3.62667,8.62728 -6.04938,17.71243 -7.2,27 -5.58482,18.15953 -6.86528,37.3699 -3.74,56.11 7,30 28.28,54.06 42.61,80.79 7.54,9.36 30.69,4.85 42.06,6.07 13.3,-1.08 26.64,0.28 39.93,-0.08 z m -88.11,-592.3 c 0.08,-5.62 -0.63,-13.73 5.89,-13.53 2.54,0.48 12,0.25 9.25,-3.87 -5.44,-1.76 -11.88,0.11 -17.63,-0.15 -6.14,0.31 -12.26,-0.75 -18.39,-0.13 -13.31,-1.55 -30.22,1.64 -34.27,16.41 -6.9,22.28 -13.9,44.53333 -21,66.76 -0.38,1.9 -5.39,11.33 -1.79,10.3 13.89,-14.65 28.66,-28.34 46.15,-38.79 16.87,-9.15 32.16,-14.78 31.79,-37 z M -286.9,88.19 V 88 c -2.37,-0.1 -10.64,-0.64 -7.44,3.4 4,2.42 12.68,-1.41 14.33,4.13 0.95,5.79 -0.6,12 2.17,17.4 0.34,1.36 -1.27,0.34 -0.5,1.69 3.32,7.59 7.41,15 15,19 11.93,6.54 23.75,13.23 34.6,21.5 10.10302,7.83899 19.3029,16.77726 27.43,26.65 0.65,0.49 1.6,0.11 1.34,-0.85 -9.81,-27 -16.14,-55.44 -26.88,-82 -12.3,-17.62 -41.35,-8.14 -60.05,-10.73 z m -70.73,779.39 h -0.1 c -1,18.79 1.85,11.52 20.4,12.7 18.32,1.32 10.92,-2.74 12.21,-19.23 2.19,-12.89 -3,-42.09 13,-46.45 3.07,-1.5 10.07,-2.12 8.92,-6.81 -0.48,-1.14 -1.59,-1 -2.57,-1 -8.28,0.69 -16.63,0.23 -24.94,0.31 -15.37,-0.66 -30.85,0.39 -46.27,-0.32 -2.42,-0.46 -3.52,1.89 -1.71,3.57 5.59,5.85 16.05,3.66 17.69,14 3.39,14.17 2.83,28.79 3.37,43.23 z m 35.26,-857 c -0.05,-3.06 -1,-3.91 -4,-3.78 -6.86,0.17 -13.72,-0.33 -20.57,-0.45 v 0.13 c -3.89,0.9 -13.12,-2.56 -13.47,3.17 0.09,15.75 -0.49,31.49 -1.18,47.24 -0.73,6.11 13.34,2.41 17.34,3.27 4.23,-0.9 23.86,3.22 23,-2.36 M -218.84,478 c 0.44,2.51 1.16,34.55 5.23,27.83 1.92,-8.06 -5.42,-23.79 5.64,-26.59 21.27,0.24 15.42,-2.17 18.35,-20.42 3.28,-20.19 4.6,-40.67 7.65,-60.89 0.24,-1.87 3.28,-10.44 -0.47,-8.27 -19.28,28.02 -36.02,52.82 -36.4,88.34 z M -464,477.76 c 1.11,-35.75 -16.67,-60.22 -36.19,-87.66 -1.78,-1.85 -2.77,1.12 -2.12,2.65 5.28,18.62 5.42,38.18 8.32,57.26 1.49,8.25 1.5,16.72 3.37,24.89 2,6.37 11,2.72 16,4 1.94064,0.15188 3.70348,1.1882 4.78,2.81 4,7.37 -0.32,16.6 1.16,24.52 4.27,5.11 4.86,-25.96 4.68,-28.47 z m 127.65,449.65 v -0.08 c 5.05,0.89 8,-3 8.07,-7.77 2,-10.91 4,-21.79 6.44,-32.62 0.53,-2.19 -1.55,-3.1 -3.42,-2.64 -7,-0.72 -14.32,-1.52 -21.5,-0.3 -3.22,0.94 -14.9,-2.1 -14.15,2.83 2.74,12.35 4.8,24.9 7.5,37.25 2.15,6.12 12.01,1.6 17.07,3.33 z m -9.14,-971.66 c -8.47,-0.17 -10.71,-1.1 -11.53,8.47 -1.57,7.41 -2.82,14.91 -4.74,22.25 -0.78,2.12 -1.2,5.4 2,5.28 12.2,-0.17 24.34,-0.43 36.56,0 5.91,0.29 0.6,-9.08 1,-12.47 -1.41,-6.51 -2.88,-13 -4.3,-19.52 -0.61,-2.78 -1.46,-3.58 -4.29,-3.64 m -26.13,122.11 c -4.16,0.89 -22.66,-2.27 -22.77,2.21 0.46,2.9 -1.81,8.68 2,9.56 14.82,0.54 29.67,-0.28 44.51,0.44 9.46,0.23 19,0.41 28.48,-0.18 3.33,-1.29 1.15,-6.59 1.64,-9.44 0,-1.95 -2,-2.22 -3.59,-2.19 -16.76,-0.12 -33.51,-0.37 -50.27,-0.4 z m 1.67,725.35 v 0 h 50.29 c 2.44,0 3.16,-0.95 3,-3.33 0.65,-9.93 -0.92,-8 -9.46,-7.76 -13.73,0.12 -27.43,-0.61 -41.16,0 -8.38,0 -16.76,-0.17 -25.14,-0.29 -2.27,0 -3.27,1 -3.15,3.27 0.36,3.54 -1.27,9.06 4.41,8.47 7.06,-0.73 14.16,-0.2 21.21,-0.36 z M -350.18,452 c 6.63,-0.16 4.58,-2.53 2,-6.76 -3.12,-3.86 -3.79,-12.56 -9.87,-12.24 -11.57,0.81 -23.21,0 -34.8,0.05 -5.58,-0.26 -2.15,9.51 -3.23,13.17 0,4.25 0.73,5 4.92,5 13.69,0.42 27.47,-1.06 40.98,0.78 z m 39.64,-0.38 c 4.78,-1 24,2.71 24.17,-2.91 -0.67,-3.68 2.51,-16.31 -3.29,-15.27 -11.71,0.35 -23.47,0.73 -35.18,-0.05 -6.14,-0.33 -8.19,11.87 -11.58,16.16 -2.94,4 22.9,1.31 25.88,2.06 z M -264.79,143 c 0.33,4.06 5.29,4.21 7.92,6.31 12.8293,7.50686 24.75409,16.46219 35.54,26.69 6.13423,5.72497 11.66027,12.06868 16.49,18.93 1.53,1.41 6.86,12.25 8.28,7.86 -1.08,-3.66 -3.06,-7.21 -3.67,-11 -2.37,-9.65 -11.44,-16.22 -18.1,-23.12 -12.23,-11.82 -26.62,-21 -41.47,-29.19 -2.36,-1.65 -4.92,1.33 -4.99,3.52 z m -153.1,0.09 c -1,-2.37 -2.25,-6 -5.31,-3.91 -15.41,8.37 -30.18,18.12 -42.72,30.49 -11.35,10.4 -15.87,15.87 -19.75,30.93 -0.63,1.12 -0.78,3.82 1.18,2.79 9.57,-13.7 20.27,-26.77 33.49,-37.23 7.08329,-5.84079 14.60176,-11.13281 22.49,-15.83 3.39,-2.54 8.58,-3.33 10.62,-7.24 z m 96.72,646.27 c 6.72,-1.38 19.9,2.83 24.84,-4.46 1.55,-2.55 -1.59,-3.56 -3.62,-2.84 -17,2.19 -34.19,-1.28 -51.31,0.06 -10.71,-0.15 -21.57,1.93 -32.15,-0.19 -2.18,-0.56 -4,0.59 -2.79,3 4.36,6.34 12.44,3.6 18.93,4.39 15.87,-0.47 29.62,-0.44 46.1,0.04 z M -354.84,68.71 c -7.62,1 -17.8,-2.78 -23.61,3.45 -1,1.3 -0.35,2.59 1.29,2.83 15,0.38 29.94,-0.27 44.91,0.4 8.29,0.35 16.62,0.06 24.93,0.06 1.8,0.22 4.46,-0.52 3.12,-2.8 -4.11,-5.62 -12.22,-3.1 -18.2,-3.61 -10.81,-0.04 -21.6,-0.52 -32.44,-0.33 z m 69.14,40.46 c -10,-0.27 3,23.72 7.15,26.53 2.88,2.26 8.12,10.07 11.49,5.14 0.9,-1.76 2.54,-4.08 0.15,-5.33 -18.8,-12.7 -11.8,-27.28 -18.79,-26.34 z m -107.92,3.32 c 0.29,-3.1 -1.78,-3.88 -4.21,-3.68 -2,0.14 -2.92,0.94 -2.94,3 -0.19883,3.77831 -1.33276,7.44811 -3.3,10.68 -2.60231,4.93142 -6.40196,9.12996 -11.05,12.21 -2,1.3 -2.25,2.11 -1.3,4.27 2.38,7.19 8.31,-0.16 11.3,-3 6.26,-6.16 10.98,-14.87 11.5,-23.48 z m 99.56,12.09 c -0.27,6.1 17.58,36.38 23.6,26 2.94,-3.94 -6.63,-6.29 -8.47,-9.62 -5.35479,-4.56396 -9.21207,-10.63386 -11.07,-17.42 -1,-4.64 -3.73,-2.82 -4.06,1.04 z m -94.69,-0.55 c -2.71,-10.72 -5,4.74 -7.43,7.34 -3.87048,6.25027 -9.20835,11.46113 -15.55,15.18 -0.87537,0.3959 -1.37277,1.33316 -1.21,2.28 4.94,14.02 24.4,-18.52 24.19,-24.83 z m 28.63,-129.55 c -1.85,0 -2.93,0.77 -2.86,2 0.92,3.92 16.36,0.82 20.42,1.71 4,-0.88 22.73,2.8 22.78,-1.46 0,-1.22 -1.18,-1.95 -3,-1.89 m -36.68,68 c -3.6,0 -2.92,3.29 0.45,2.77 10.28,-0.59 20.55,0 30.83,0.44 v -0.08 c 1.74,0 10.44,0.71 6.19,-2.56 -4.29,-0.55 -8.87,0.21 -13.21,-0.11 M -347.65,0.87 v 0.07 c -1.72,0.47 -15.78,-1.45 -12.48,2 11.73,0.48 23.58,-0.28 35.35,0.39 12.21,-2.75 -21.22,-2.24 -22.87,-2.46 z m 60.49,94.84 c -7.23,0.23 -2.59,7.21 2.54,5.09 4.62,-0.72 0.69,-6.07 -2.54,-5.09 z M -395.48,95.3 v -0.08 c -2.5,-0.46 -6.7,2.65 -3.77,4.75 6.18,3.31 10.55,-4.56 3.77,-4.67 z m 109.69,8.21 c -1.14,0.11 -3.89,0.61 -2.39,2.25 2.77,2.24 8.53,-1.76 2.39,-2.25 z m -111,2.52 c 1.06,-0.2 2.49,-0.43 2.55,-1.77 -0.67,-1.51 -3.09,-0.77 -4.43,-0.81 -2.33,1.09 0.31,2.7 1.89,2.55 z M -189,215.9 c -0.94,-1.18 -1.55,-0.57 -0.53,0.44 z m -2.17,-4.41 -0.07,-0.33 -0.41,0.17 c 0.13,0.28 0.24,0.35 0.5,0.16 z m -300,-0.43 -0.16,-0.3 c -0.3,0.13 -0.36,0.24 -0.14,0.5 z"
     transform="translate(514.47,48.73)"
     id="path2"
     sodipodi:nodetypes="ccccccccccccccccccccccccccccccccccccccccccccccccccccccccccccccccscccccccccccccccccccccccccccccccccccccccccccsscccccccccccccccccccccccccccccccccccccccccccccccccccccccccccccccccscccccccccccccccccccccccccccccccccccccccccccccccccccccccccccccccccccccccccccccccccccccccccccccccccccccccccccccccccccccccccccccccccccccccccccccccccccccccccccccccccccccccccccccccccccscsccccccscccccccccccccccccccccccccccccccccccccccccccccccccccccccccccccccccccccccccccccccccccccccccccccccccccccccccccccccccc" />
  <path
     d="M-189,215.9l-.53.44C-190.54,215.33-189.91,214.72-189,215.9Z"
     transform="translate(514.47 48.73)"
     style="fill:#fff"
     id="path4" />
  <path
     d="M-191.15,211.49c-.26.19-.37.12-.48-.16l.41-.17C-191.2,211.27-191.18,211.38-191.15,211.49Z"
     transform="translate(514.47 48.73)"
     style="fill:#fff"
     id="path6" />
  <path
     d="M-491.12,211.07l-.3.19c-.22-.26-.16-.37.14-.5C-491.23,210.86-491.17,211-491.12,211.07Z"
     transform="translate(514.47 48.73)"
     style="fill:#fff"
     id="path8" />
  <path
     d="M-453.54,369.4c-.11.07-.17.05-.23-.06l.2-.09Z"
     transform="translate(514.47 48.73)"
     id="path10" />
  <path
     d="M-248.4,589.12c-.45,6.13-.29,11.16-2.31,16.69-.24.84-.49,1.57.24,2.39,1.16,15-7.93,29.8-16.79,41.51-38.88,43.89-100.17,46.17-142.59,5.79-12.18-12.35-22.65-29.72-22-47.32a1.89,1.89,0,0,0,.27-2.2c-3.44-10.63-2.29-22.26-.76-33.14,6.6-27.63,15.05-54.83,22.16-82.34,2.65-10.58,4-25.27,18.66-22.62,18.09-.15,36.13.39,54.21,0,13.75.84,27.53.18,41.33.37,10.4-.23,18.37-1.16,21,11.22,5.61,19.17,9.88,38.71,15.64,57.82C-254.84,554.22-248.81,571.52-248.4,589.12Zm-181.42.11c-1.42,20.92,2.34,44,17.39,59.68,28.21,31.16,77.2,43,114.51,21.4,17.33-9.4,33.79-23.94,40.85-42.75,4.82-11.14,4.32-23.76,5.38-35.49-.49-2.65-1.55-5.33-.26-7.94-.92-21.74-10.57-42.37-15.35-63.57-2-7.8-3.92-15.6-6.28-23.29-2.87-6.18-3.28-24.27-10.28-25.34-18-1.5-36.16.15-54.22-.86-14.89-.61-29.68.8-44.59-.21-20.53.51-19.21-1.44-24.18,19-6.19,22.51-11.83,45.2-18.57,67.52"
     transform="translate(514.47 48.73)"
     id="path12" />
  <path
     d="M-350.25,581.86c4.81-7.24,17.3-5.07,19.4,3.32,4.29,20.16-27.89,17.82-20.31-1.61m3.05,5c-.52,9.23,14.24,9.11,14,.08C-333.7,579.54-348.57,579.28-348.11,588.61Z"
     transform="translate(514.47 48.73)"
     id="path14" />
  <path
     d="M-317.64,49.63"
     transform="translate(514.47 48.73)"
     style="fill:#fff"
     id="path16" />
  <path
     d="M-318.89,13"
     transform="translate(514.47 48.73)"
     style="fill:#fff"
     id="path18" />
  <circle
     cx="250.7"
     cy="484.62"
     r="9.73"
     style="fill:red;stroke:#000;stroke-miterlimit:10"
     id="circle20"
     inkscape:label="RHD" />
  <circle
     cx="172.68211"
     cy="952.28333"
     r="9.7299995"
     style="fill:#ff0000;stroke:#000000;stroke-miterlimit:10"
     id="circle20-3" />
  <circle
     cx="173.25378"
     cy="78.535225"
     r="9.7299995"
     style="fill:#ff0000;stroke:#000000;stroke-miterlimit:10"
     id="circle20-6"
     inkscape:label="PROXIMAL" />
  <rect
     style="opacity:1;fill:url(#linearGradient1431);fill-opacity:1;stroke:#000000;stroke-width:0.803;stroke-linecap:round;stroke-dasharray:none;stroke-opacity:1"
     id="rect715"
     width="17.021101"
     height="32.59853"
     x="236.08513"
     y="617.72552"
     rx="1.6278839"
     ry="2.2992837"
     inkscape:label="BAR" />
  <path
     id="rect715-5"
     style="fill:url(#linearGradient2755);fill-opacity:1;stroke:#000000;stroke-width:0.803;stroke-linecap:round;stroke-dasharray:none;stroke-opacity:1"
     d="m 97.142811,615.78128 c -0.901847,0 -1.626953,1.02502 -1.626953,2.29883 v 28 c 0,1.2738 0.725106,2.29882 1.626953,2.29882 h 13.765629 c 0.90184,0 1.6289,-1.02502 1.6289,-2.29882 v -4.21485 h 14.36719 c 1.2738,0 2.29883,-0.7251 2.29883,-1.62695 v -13.76563 c 0,-0.90184 -1.02503,-1.62695 -2.29883,-1.62695 h -14.36719 v -6.76562 c 0,-1.27381 -0.72706,-2.29883 -1.6289,-2.29883 z"
     inkscape:label="TBAR"
     sodipodi:nodetypes="sssssscsssscsss" />
</svg>
